# AST/ASF file generated using VICON BodyLanguage
# -----------------------------------------------
:version 1.10
:name VICON
:units
  mass 1.0
  length 0.45
  angle deg
:documentation
   .ast/.asf automatically generated from VICON data using
   VICON BodyBuilder and BodyLanguage model FoxedUp or BRILLIANT.MOD
:root
   order TX TY TZ RX RY RZ
   axis XYZ
   position 0 0 0  
   orientation 0 0 0 
:bonedata
  begin
     id 1 
     name lhipjoint
     direction 0.584852 -0.759097 0.285867 
     length 2.43633 
     axis 0 0 0  XYZ
  end
  begin
     id 2 
     name lfemur
     direction 0.34202 -0.939693 0  
     length 7.14704  
     axis 0 0 20  XYZ
    dof rx ry rz
    limits (-160.0 20.0)
           (-70.0 70.0)
           (-60.0 70.0)
  end
  begin
     id 3 
     name ltibia
     direction 0.342022 -0.939692 0   
     length 7.68483   
     axis 0 0 20   XYZ
    dof rx
    limits (-10.0 170.0)
  end
  begin
     id 4 
     name lfoot
     direction 0.0999605 -0.274639 0.956337   
     length 2.40452   
     axis -90 7.62852e-016 20   XYZ
    dof rx rz
    limits (-45.0 90.0)
           (-70.0 20.0)
  end
  begin
     id 5 
     name ltoes
     direction 1.53468e-011 -4.21881e-011 1   
     length 1.19837   
     axis -90 7.62852e-016 20   XYZ
    dof rx
    limits (-90.0 20.0)
  end
  begin
     id 6 
     name rhipjoint
     direction -0.569886 -0.769002 0.289597   
     length 2.40495  
     axis 0 0 0  XYZ 
  end
  begin
     id 7 
     name rfemur
     direction -0.34202 -0.939693 0   
     length 7.45086   
     axis 0 0 -20   XYZ
    dof rx ry rz
    limits (-160.0 20.0)
           (-70.0 70.0)
           (-70.0 60.0)
  end
  begin
     id 8 
     name rtibia
     direction -0.34202 -0.939693 0   
     length 7.76831   
     axis 0 0 -20   XYZ
    dof rx
    limits (-10.0 170.0)
 end
 begin
     id 9 
     name rfoot
     direction -0.0798572 -0.219406 0.97236   
     length 2.35911  
     axis -90 -7.62852e-016 -20   XYZ
    dof rx rz
    limits (-45.0 90.0)
           (-20.0 70.0)
  end
  begin
     id 10 
     name rtoes
     direction -1.53469e-011 -4.21728e-011 1   
     length 1.18261   
     axis -90 -7.62852e-016 -20   XYZ
    dof rx
    limits (-90.0 20.0)
  end
  begin
     id 11 
     name lowerback
     direction 0.0242088 0.999437 0.0232389   
     length 2.1561   
     axis 0 0 0   XYZ
    dof rx ry rz
    limits (-20.0 45.0)
           (-30.0 30.0)
           (-30.0 30.0)
  end
  begin
     id 12 
     name upperback
     direction -0.0356893 0.999013 -0.0264323   
     length 2.14431   
     axis 0 0 0   XYZ
    dof rx ry rz
    limits (-20.0 45.0)
           (-30.0 30.0)
           (-30.0 30.0)
  end
  begin
     id 13 
     name thorax
     direction -0.0472163 0.998194 -0.0371284   
     length 2.16169   
     axis 0 0 0   XYZ
    dof rx ry rz
    limits (-20.0 45.0)
           (-30.0 30.0)
           (-30.0 30.0)
  end
  begin
     id 14 
     name lowerneck
     direction 0.00863244 0.999921 0.00911972   
     length 1.58651   
     axis 0 0 0   XYZ
    dof rx ry rz
    limits (-20.0 45.0)
           (-30.0 30.0)
           (-30.0 30.0)
  end
  begin
     id 15 
     name upperneck
     direction 0.149523 0.979068 -0.138086   
     length 1.57486   
     axis 0 0 0   XYZ
    dof rx ry rz
    limits (-20.0 45.0)
           (-30.0 30.0)
           (-30.0 30.0)
  end
  begin
     id 16
     name head
     direction 0.0445219 0.997708 -0.0509576  
     length 1.6019  
     axis 0 0 0   XYZ
    dof rx ry rz
    limits (-20.0 45.0)
           (-30.0 30.0)
           (-30.0 30.0)
  end
  begin
     id 17 
     name lclavicle
     direction 0.911271 0.381667 -0.154644  
     length 3.80848  
     axis 0 0 0   XYZ
    dof ry rz
    limits (-20.0 10.0)
           (0.0 20.0)
  end
  begin
     id 18 
     name lhumerus
     direction 1 -4.49003e-011 2.1308e-027   
     length 5.19069   
     axis 180 -30 -90   XYZ
    dof rx ry rz
    limits (-60.0 90.0)
           (-90.0 90.0)
           (-90.0 90.0)
  end
  begin
     id 19
     name lradius
     direction 1 -4.48914e-011 4.01554e-027   
     length 3.30016   
     axis 180 -30 -90   XYZ
    dof rx
    limits (-10.0 170.0)
  end
  begin
     id 20
     name lwrist
     direction 1 -4.49003e-011 1.1934e-026   
     length 1.65008   
     axis -8.46377e-015 90 90   XYZ
    dof ry
    limits (-180.0 0.0)
 end
  begin
     id 21 
     name lhand
     direction 1 -4.49034e-011 2.38659e-026   
     length 0.707698   
     axis -1.52313e-014 90 90   XYZ
    dof rx rz
    limits (-90.0 90.0)
           (-45.0 45.0)
  end
  begin
     id 22 
     name lfingers
     direction 1 -4.48691e-011 4.77775e-026   
     length 0.570564   
     axis -3.04623e-014 90 90   XYZ
    dof rx
    limits (0.0 90.0)
  end
  begin
     id 23
     name lthumb
     direction 0.707107 -6.34832e-011 0.707107   
     length 0.819219   
     axis -90 45 -1.62303e-014   XYZ
    dof rx rz
    limits (-45.0 45.0)
           (-45.0 45.0)
  end
  begin
     id 24 
     name rclavicle
     direction -0.815579 0.573708 -0.0754329   
     length 3.54371  
     axis 0 0 0   XYZ 
    dof ry rz
    limits (-10.0 20.0)
           (-20.0 0.0)
  end
  begin
     id 25 
     name rhumerus
     direction -1 -4.48956e-011 3.05351e-028  
     length 5.23924   
     axis 180 30 90   XYZ
    dof rx ry rz
    limits (-90.0 60.0)
           (-90.0 90.0)
           (-90.0 90.0)
  end
  begin
     id 26 
     name rradius
     direction -1 -4.49013e-011 3.53849e-027   
     length 3.32953   
     axis 180 30 90   XYZ
    dof rx
    limits (-10.0 170.0)
  end
  begin
     id 27 
     name rwrist
     direction -1 -4.48901e-011 1.19374e-026   
     length 1.66477   
     axis -8.46377e-015 -90 -90   XYZ
    dof ry
    limits (-180.0 0.0)
  end
  begin
     id 28
     name rhand
     direction -1 -4.48877e-011 2.38764e-026   
     length 0.607414   
     axis -1.52313e-014 -90 -90   XYZ
    dof rx rz
    limits (-90.0 90.0)
           (-45.0 45.0)
  end
  begin
     id 29
     name rfingers
     direction -1 -4.48882e-011 4.77521e-026   
     length 0.489712   
     axis -3.04623e-014 -90 -90   XYZ
    dof rx
    limits (0.0 90.0)
  end
  begin
     id 30
     name rthumb
     direction -0.707107 -6.34974e-011 0.707107   
     length 0.703132   
     axis -90 -45 1.62303e-014   XYZ
    dof rx rz
    limits (-45.0 45.0)
           (-45.0 45.0)
  end
:hierarchy
  begin
    root lhipjoint rhipjoint lowerback
    lhipjoint lfemur
    lfemur ltibia
    ltibia lfoot
    lfoot ltoes
    rhipjoint rfemur
    rfemur rtibia
    rtibia rfoot
    rfoot rtoes
    lowerback upperback
    upperback thorax
    thorax lowerneck lclavicle rclavicle
    lowerneck upperneck
    upperneck head
    lclavicle lhumerus
    lhumerus lradius
    lradius lwrist
    lwrist lhand lthumb
    lhand lfingers
    rclavicle rhumerus
    rhumerus rradius
    rradius rwrist
    rwrist rhand rthumb
    rhand rfingers
  end

#!OML:ASF E:\VariousWalksJay\Project 1\Capture day 1\Session 1\Actor2.ASF
:FULLY-SPECIFIED
:DEGREES
39
root 26.2784 16.6521 48.1994 176.659 -50.7972 -174.721
lowerback -2.69739 0.255825 6.28568
upperback 4.37465 -0.0123795 -1.59879
thorax 6.10219 0.292583 -5.21675
lowerneck -9.25096 2.09857 4.69603
upperneck 8.12991 1.42323 5.65393
head 4.36938 1.06863 1.16735
rclavicle 3.95581e-014 -7.95139e-015
rhumerus -32.9591 0.141617 -85.2343
rradius 32.9395
rwrist 0.457079
rhand -6.61302 -6.61145
rfingers 7.12502
rthumb 19.243 -35.6794
lclavicle 3.95581e-014 -7.95139e-015
lhumerus -26.3736 -7.36851 80.3032
lradius 23.4622
lwrist 5.50672
lhand -5.30098 -9.63922
lfingers 7.12502
lthumb 20.5042 19.298
rfemur -12.6224 -4.36249 22.9861
rtibia 32.8625
rfoot -17.4768 -15.5089
rtoes -14.3137
lfemur -10.4431 5.94498 -16.5362
ltibia 27.4663
lfoot -15.8304 6.17863
ltoes -19.3299
40
root 26.2769 16.6521 48.19 176.588 -50.9719 -174.699
lowerback -2.55209 0.131172 6.28814
upperback 4.29404 -0.16459 -1.62607
thorax 5.9112 0.209811 -5.25678
lowerneck -9.26384 2.14836 4.68736
upperneck 8.24003 1.47733 5.68944
head 4.41166 1.09976 1.1871
rclavicle 3.04141e-014 -2.62396e-014
rhumerus -33.0887 0.173857 -85.3243
rradius 32.7702
rwrist 0.59081
rhand -10.2691 -4.63412
rfingers 7.12502
rthumb 15.7245 -34.0153
lclavicle 3.04141e-014 -2.62396e-014
lhumerus -26.6494 -7.3816 80.226
lradius 23.564
lwrist 5.62969
lhand -5.28457 -9.65245
lfingers 7.12502
lthumb 20.52 19.2831
rfemur -12.4666 -4.43386 23.0162
rtibia 32.7748
rfoot -17.6579 -15.4301
rtoes -13.1976
lfemur -10.3254 5.92094 -16.4793
ltibia 27.3769
lfoot -15.8511 5.99364
ltoes -19.1468
41
root 26.2739 16.652 48.1936 176.646 -50.9011 -174.715
lowerback -2.72186 0.207745 6.23763
upperback 4.36019 -0.0755513 -1.57531
thorax 6.09119 0.258016 -5.16952
lowerneck -9.26072 2.11148 4.72649
upperneck 8.12967 1.441 5.61126
head 4.37163 1.07678 1.14874
rclavicle 1.00287e-013 -2.14687e-014
rhumerus -32.9816 -0.0313209 -85.1513
rradius 32.6159
rwrist 0.720179
rhand -9.32671 -5.30475
rfingers 7.12502
rthumb 16.6319 -34.6121
lclavicle 1.00287e-013 -2.14687e-014
lhumerus -26.5152 -7.41917 80.3404
lradius 23.532
lwrist 5.61094
lhand -5.29397 -9.65656
lfingers 7.12502
lthumb 20.5109 19.28
rfemur -12.5287 -4.49568 22.9843
rtibia 32.772
rfoot -16.719 -15.8214
rtoes -17.6448
lfemur -10.331 5.78572 -16.4959
ltibia 27.3754
lfoot -15.9827 6.0564
ltoes -18.7872
42
root 26.2707 16.6522 48.1919 176.672 -50.9255 -174.754
lowerback -2.75664 0.208211 6.19761
upperback 4.36417 -0.0751107 -1.56906
thorax 6.11499 0.257218 -5.14043
lowerneck -9.2464 2.08967 4.7368
upperneck 8.10847 1.41814 5.57195
head 4.36133 1.06351 1.1313
rclavicle -8.29926e-014 1.27222e-014
rhumerus -32.9859 -0.0642479 -85.1127
rradius 32.4666
rwrist 0.770514
rhand -7.33551 -6.49599
rfingers 7.12502
rthumb 18.5481 -35.6317
lclavicle -8.29926e-014 1.27222e-014
lhumerus -26.5519 -7.45562 80.3734
lradius 23.5681
lwrist 5.64965
lhand -5.27173 -9.70178
lfingers 7.12502
lthumb 20.5323 19.2325
rfemur -12.5257 -4.56072 22.9501
rtibia 32.8184
rfoot -16.7437 -15.7805
rtoes -17.7107
lfemur -10.3291 5.79575 -16.5235
ltibia 27.4118
lfoot -15.957 6.09575
ltoes -18.8307
43
root 26.2686 16.6527 48.1923 176.653 -50.9172 -174.723
lowerback -2.69714 0.196249 6.25769
upperback 4.3244 -0.0885037 -1.57185
thorax 6.03713 0.250106 -5.1777
lowerneck -9.24451 2.105 4.73119
upperneck 8.12411 1.43684 5.58468
head 4.36644 1.07348 1.13818
rclavicle -1.74533e-013 2.8625e-014
rhumerus -33.0278 -0.154584 -85.0801
rradius 32.3447
rwrist 0.850656
rhand -7.35536 -6.45742
rfingers 7.12502
rthumb 18.529 -35.595
lclavicle -1.74533e-013 2.8625e-014
lhumerus -26.6514 -7.50235 80.3943
lradius 23.6373
lwrist 5.73384
lhand -5.25542 -9.6612
lfingers 7.12502
lthumb 20.548 19.2713
rfemur -12.5534 -4.59161 22.9613
rtibia 32.8663
rfoot -16.707 -15.7671
rtoes -17.9144
lfemur -10.3452 5.77738 -16.5004
ltibia 27.443
lfoot -16.0201 6.01554
ltoes -18.6828
44
root 26.2675 16.6433 48.1867 176.644 -51.0379 -174.735
lowerback -2.67668 0.140501 6.22561
upperback 4.29578 -0.157713 -1.5828
thorax 5.98482 0.212427 -5.17595
lowerneck -9.24564 2.11689 4.70141
upperneck 8.16102 1.44796 5.63325
head 4.37959 1.08107 1.16154
rclavicle -6.77856e-014 1.03368e-014
rhumerus -33.0979 -0.241888 -85.0758
rradius 32.2535
rwrist 0.926547
rhand -6.58956 -6.76425
rfingers 7.12502
rthumb 19.2655 -35.83
lclavicle -6.77856e-014 1.03368e-014
lhumerus -26.7762 -7.53576 80.3686
lradius 23.7136
lwrist 5.80284
lhand -5.27003 -9.65671
lfingers 7.12502
lthumb 20.5339 19.2773
rfemur -12.5578 -5.39878 22.9042
rtibia 32.9126
rfoot -16.4745 -15.102
rtoes -18.1535
lfemur -10.3351 5.73127 -16.4864
ltibia 27.487
lfoot -16.0998 5.91715
ltoes -18.4162
